<?xml version="1.0" encoding="UTF-8"?> <svg xmlns="http://www.w3.org/2000/svg" width="65" height="66" viewBox="0 0 65 66" fill="none"><rect y="0.41452" width="64.8629" height="64.8629" fill="black"></rect><path fill-rule="evenodd" clip-rule="evenodd" d="M35.4321 27.8558C36.4987 27.3239 37.8558 26.541 39.2146 25.4684C39.5011 26.0633 39.5325 26.5825 39.3849 27.0017C39.2803 27.2972 39.0832 27.5542 38.824 27.7586C38.5433 27.9795 38.1928 28.1404 37.8053 28.2273C37.07 28.393 36.2116 28.2963 35.4321 27.8558ZM35.617 33.3051L37.0289 34.1206C34.1461 35.7364 33.3623 38.7366 32.4314 41.6589C31.5005 38.7366 30.7167 35.7364 27.834 34.1206L29.2459 33.3051C29.3825 33.2535 29.4992 33.1599 29.5794 33.0379C29.6596 32.9159 29.699 32.7716 29.6922 32.6257C29.5628 29.889 30.3018 28.6787 31.2985 27.9189C31.656 27.6467 32.0463 27.51 32.4314 27.51C32.8164 27.51 33.2067 27.6467 33.5643 27.9189C34.5611 28.6787 35.3 29.889 35.1707 32.6257C35.1638 32.7716 35.2033 32.9159 35.2835 33.0379C35.3637 33.1599 35.4804 33.2535 35.617 33.3051ZM32.4314 15.4353C34.0634 15.4791 35.6995 15.7959 37.1194 16.4123C38.1027 16.8396 39.0202 17.4041 39.8509 18.0792C40.2261 18.3839 40.535 18.6783 40.8754 19.0172C41.7932 19.0489 43.1345 18.0293 43.7573 17.0752C42.6856 20.5887 37.795 24.7378 34.4093 26.3254C34.4079 26.3248 34.407 26.324 34.4059 26.3233C33.7983 25.8594 33.1149 25.6274 32.4314 25.6274C31.7479 25.6274 31.0646 25.8594 30.457 26.3233C30.4559 26.3239 30.455 26.325 30.4536 26.3254C27.0677 24.7378 22.1773 20.5887 21.1056 17.0752C21.7282 18.0293 23.0696 19.0489 23.9874 19.0172C24.3278 18.6784 24.6368 18.3839 25.0118 18.0792C25.8426 17.4041 26.7601 16.8396 27.7433 16.4123C29.1634 15.7959 30.7995 15.4791 32.4314 15.4353ZM29.4307 27.8558C28.3642 27.3239 27.0069 26.541 25.6483 25.4684C25.3618 26.0633 25.3304 26.5825 25.4779 27.0017C25.5826 27.2972 25.7797 27.5542 26.0388 27.7586C26.3196 27.9795 26.6701 28.1404 27.0576 28.2273C27.7929 28.393 28.6512 28.2963 29.4307 27.8558Z" fill="white"></path><path fill-rule="evenodd" clip-rule="evenodd" d="M40.7028 24.154C41.4508 23.3991 42.1099 22.5636 42.6399 21.818L42.9091 22.3246C43.7756 24.0584 44.2259 25.7851 44.2259 27.7284L44.224 30.8121L44.2403 32.4106C44.3031 36.3351 45.1522 40.3057 47.0757 43.9393L43.0512 40.6941L40.2036 45.3151L37.2119 42.4988L32.4314 50.2567L27.6508 42.499L24.6593 45.3152L21.8117 40.6942L17.787 43.9394C19.7106 40.3058 20.5597 36.3352 20.6226 32.4108L20.6389 30.8122L20.637 27.7285C20.637 25.7851 21.0871 24.0584 21.9539 22.3248L22.223 21.8181C22.753 22.5637 23.412 23.3991 24.1601 24.1541L23.9265 24.6394C23.4727 25.5818 23.3224 26.6357 23.6759 27.6379C23.9038 28.2834 24.3198 28.837 24.8561 29.2596C25.3768 29.6699 25.993 29.9466 26.6382 30.0918C27.0584 30.1864 27.4866 30.2254 27.912 30.2121C27.8127 30.7748 27.7694 31.3583 27.7666 31.9529L23.9702 34.1456L26.8998 35.7878C27.1339 35.9191 27.3568 36.0695 27.5662 36.2375C29.9815 38.406 31.4336 44.8212 32.4315 47.9548C33.4295 44.8212 34.8815 38.406 37.2969 36.2375C37.5063 36.0694 37.7292 35.919 37.9633 35.7878L40.8929 34.1456L37.0964 31.9529C37.0936 31.3583 37.0503 30.7748 36.951 30.2121C37.3764 30.2254 37.8046 30.1864 38.2248 30.0918C38.87 29.9466 39.4863 29.6699 40.0069 29.2596C40.5431 28.837 40.9591 28.2834 41.1869 27.6379C41.5406 26.6357 41.3902 25.582 40.9365 24.6394L40.7029 24.1541L40.7028 24.154Z" fill="white"></path></svg> 