<?xml version="1.0" encoding="UTF-8"?> <svg xmlns="http://www.w3.org/2000/svg" width="66" height="66" viewBox="0 0 66 66" fill="none"><rect x="0.725891" y="0.41452" width="64.8629" height="64.8629" fill="black"></rect><path fill-rule="evenodd" clip-rule="evenodd" d="M29.6539 18.3372C27.7808 19.3525 26.2483 20.2116 26.2486 20.2466C26.2495 20.3368 30.7441 22.7053 30.9037 22.6996C30.9762 22.697 31.5027 22.4449 32.0735 22.1393L32.168 22.0887C32.7574 21.7732 33.4655 21.7731 34.055 22.0884L34.245 22.1901L34.4954 22.324C35.0513 22.6214 35.7148 22.6393 36.2859 22.3723L37.235 21.9285C40.0321 20.6206 40.3227 20.4773 40.2771 20.4291C40.2167 20.3652 39.2134 19.8044 36.4914 18.3132C35.1759 17.5925 33.8991 16.8859 33.6539 16.7429C33.4089 16.5999 33.1749 16.4849 33.134 16.4872C33.0931 16.4894 31.527 17.3219 29.6539 18.3372ZM21.4385 22.7639L20.5417 23.2459C19.8932 23.5945 19.4886 24.2712 19.4886 25.0076V28.4115C19.4886 30.9413 19.5142 33.0111 19.5456 33.0111C19.5769 33.0111 20.5362 32.5783 21.6774 32.0495L22.5933 31.625C23.3 31.2975 23.7523 30.5894 23.7523 29.8104V27.4051C23.7523 26.8847 24.3136 26.5578 24.7662 26.8144V26.8144C25.5476 27.2569 26.3293 27.6986 27.1116 28.1393L27.8725 28.568C28.2304 28.7696 28.6638 28.7855 29.0354 28.6106V28.6106C29.407 28.4355 29.7778 28.2587 30.1479 28.0802C30.4338 27.9416 31.1358 27.6126 31.7077 27.349C32.2797 27.0852 32.8091 26.8199 32.8842 26.7595C32.9839 26.6792 31.7679 25.9799 28.3863 24.173C25.8374 22.811 23.6701 21.7009 23.5701 21.7062C23.4702 21.7115 22.5109 22.1874 21.4385 22.7639ZM40.6285 23.0582C39.3006 23.682 38.2131 24.2174 38.2118 24.2479C38.2107 24.2784 38.9345 24.7262 39.8204 25.2429C40.7062 25.7597 41.431 26.2102 41.431 26.2441C41.431 26.278 40.6471 26.6732 39.6892 27.1225C38.7311 27.5718 36.3094 28.7098 34.3076 29.6514L27.6 32.8063C25.9128 33.6 24.3919 34.3154 24.2203 34.3962C20.7739 36.0196 19.8267 36.4701 19.6966 36.5474C19.5658 36.6253 19.5361 37.0775 19.5129 39.3475L19.4976 40.8376C19.4899 41.5853 19.9 42.2749 20.5606 42.6251L21.2287 42.9794L22.0897 43.4358C22.6454 43.7305 23.3074 43.7465 23.8767 43.4792L25.3902 42.7684C26.72 42.144 27.808 41.6003 27.808 41.5603C27.808 41.5204 27.5623 41.3538 27.2621 41.1899C26.9617 41.0261 26.3417 40.6633 25.8841 40.3837C25.4266 40.104 24.9704 39.8475 24.8702 39.8134C24.7701 39.7795 24.6896 39.7201 24.6912 39.6814C24.6929 39.6428 25.7576 39.1166 27.0571 38.5119C29.5811 37.3377 31.5127 36.4326 35.6595 34.4813C37.5138 33.6089 39.3683 32.7371 41.2231 31.8658C42.8531 31.1001 44.7484 30.206 45.4348 29.8787L45.5562 29.8208C46.2456 29.4921 46.6876 28.7995 46.6953 28.0358L46.7104 26.5455L46.726 25.0204C46.7335 24.275 46.3259 23.5871 45.6683 23.2359L44.9698 22.8629C43.9971 22.3434 43.1656 21.9197 43.122 21.9212C43.0785 21.9226 41.9564 22.4342 40.6285 23.0582ZM46.2089 32.9366C45.9483 33.0691 45.4335 33.3171 45.065 33.4877C44.6964 33.6583 43.9971 33.9867 43.5109 34.2175V34.2175C42.9703 34.4741 42.6238 35.017 42.6187 35.6154L42.6068 37.0409C42.5956 38.363 42.5489 39.4389 42.5028 39.4319C42.3982 39.4157 40.7415 38.5316 39.0761 37.6031C37.8742 36.933 37.7987 36.9064 37.5162 37.0519C37.353 37.1361 36.377 37.5916 35.3475 38.0642C34.3179 38.5368 33.442 38.9543 33.4008 38.9921C33.3598 39.0298 35.4318 40.1984 38.0055 41.5891L41.7359 43.6048C42.3283 43.9249 43.0418 43.9255 43.6347 43.6064L44.6838 43.0416C45.7831 42.4499 46.7179 41.9101 46.761 41.8423C46.8579 41.6896 46.8496 32.6749 46.7526 32.6871C46.7142 32.6918 46.4695 32.8042 46.2089 32.9366ZM35.1395 43.5177C34.7928 43.6728 34.4461 43.8281 34.0996 43.9837C33.0531 44.4548 33.2582 44.4704 32.0132 43.8255C31.1839 43.396 30.8265 43.2635 30.6714 43.3278C30.555 43.376 29.5534 43.8449 28.4455 44.3697C27.3376 44.8945 26.3928 45.3239 26.3458 45.3239C25.8809 45.3239 26.6537 45.8043 29.6356 47.3695L32.2131 48.7223C32.7896 49.0248 33.4773 49.0278 34.0564 48.7303L34.604 48.449C35.4133 48.0333 37.0456 47.2008 38.2314 46.599C39.4171 45.9971 40.3726 45.4891 40.3547 45.4699C40.3367 45.4508 39.3432 44.9199 38.1468 44.2902L36.778 43.5698C36.2688 43.3018 35.6647 43.2826 35.1395 43.5177V43.5177Z" fill="#FFFDFD"></path></svg> 