<?xml version="1.0" encoding="UTF-8"?> <svg xmlns="http://www.w3.org/2000/svg" width="66" height="66" viewBox="0 0 66 66" fill="none"><rect x="0.862946" y="0.41452" width="64.8629" height="64.8629" fill="black"></rect><mask id="path-2-inside-1_7_23" fill="white"><path d="M27.2264 18.0139C26.774 17.9441 26.7547 17.9369 26.9689 17.9056C27.3779 17.843 28.3404 17.9272 29.0045 18.0836C30.5541 18.4494 31.9642 19.3878 33.4705 21.0553L33.8699 21.4981L34.4426 21.4066C36.8536 21.0216 39.3031 21.3272 41.3556 22.268C41.9211 22.5279 42.8114 23.0428 42.9197 23.1752C42.9582 23.2185 43.0231 23.488 43.0641 23.7791C43.2181 24.7849 43.1435 25.5525 42.8331 26.1276C42.6646 26.4404 42.655 26.5391 42.7681 26.8086C42.8222 26.9196 42.9063 27.0131 43.011 27.0786C43.1156 27.1442 43.2366 27.179 43.36 27.1791C43.8701 27.1791 44.4188 26.361 44.6714 25.2205L44.7725 24.7657L44.9722 24.9919C46.0718 26.2287 46.9332 27.913 47.08 29.1113L47.1185 29.4241L46.9357 29.1402C46.6698 28.7053 46.3127 28.3334 45.8889 28.0502C45.1526 27.5665 44.373 27.4005 42.3133 27.2922C40.4509 27.196 39.397 27.0372 38.3527 26.6979C36.5745 26.1204 35.6794 25.3552 33.5667 22.6025C32.6283 21.3777 32.0508 20.7016 31.4733 20.1578C30.1619 18.9186 28.8746 18.2689 27.2264 18.0163V18.0139Z"></path><path d="M43.3432 20.7449C43.3889 19.9268 43.4996 19.3854 43.7258 18.8921C43.7753 18.7675 43.8374 18.6481 43.911 18.536C43.9231 18.536 43.8846 18.6804 43.8244 18.856C43.6608 19.3373 43.6319 19.9918 43.7474 20.7545C43.8918 21.7218 43.9712 21.8614 44.9986 22.9057C45.4823 23.3966 46.0429 24.0125 46.2475 24.2796L46.618 24.7609L46.2475 24.4168C45.7951 23.9957 44.7556 23.1728 44.5246 23.0549C44.3706 22.9779 44.3466 22.9779 44.2527 23.0717C44.1637 23.1583 44.1469 23.2883 44.1324 23.9043C44.1156 24.8643 43.9832 25.4803 43.6656 26.0939C43.4948 26.4308 43.4683 26.3586 43.6223 25.9808C43.7378 25.7017 43.7498 25.5766 43.7498 24.6478C43.7498 22.783 43.5236 22.333 42.2171 21.5678C41.823 21.3402 41.4183 21.1314 41.0043 20.9422C40.8004 20.8602 40.6026 20.7637 40.4124 20.6535C40.4485 20.6174 41.7238 20.9879 42.2363 21.1828C43.0015 21.4764 43.1266 21.5125 43.2205 21.4788C43.2806 21.4547 43.3119 21.2743 43.3408 20.7449H43.3432ZM28.1046 23.938C27.1879 22.6819 26.6176 20.7545 26.7427 19.3132L26.7788 18.8681L26.9881 18.9042C27.3828 18.9763 28.0589 19.2266 28.3765 19.4191C29.2452 19.9436 29.6229 20.6342 30.0055 22.41C30.1186 22.9297 30.2654 23.5169 30.3328 23.719C30.4411 24.039 30.8549 24.7873 31.1894 25.2734C31.43 25.6247 31.2712 25.7907 30.737 25.7426C29.9213 25.6704 28.8169 24.9125 28.1046 23.938ZM42.2267 33.2909C37.934 31.5753 36.4229 30.0834 36.4229 27.5689C36.4229 27.1984 36.4349 26.8952 36.4518 26.8952C36.4662 26.8952 36.6322 27.0155 36.8199 27.1671C37.691 27.8601 38.6655 28.156 41.3653 28.5483C42.9534 28.7793 43.8437 28.9645 44.669 29.2364C47.2918 30.1003 48.9112 31.852 49.2986 34.2414C49.4092 34.9343 49.3467 36.2337 49.1614 36.9195C49.017 37.4609 48.5791 38.4354 48.4636 38.4739C48.4299 38.4859 48.3986 38.3632 48.3914 38.1948C48.3481 37.2997 47.8909 36.4262 47.1257 35.7717C46.2547 35.0282 45.0853 34.4339 42.2267 33.2909ZM39.2141 34.0055C39.1637 33.7008 39.0946 33.3995 39.0072 33.1032L38.8965 32.7784L39.101 33.007C39.3825 33.3198 39.6063 33.7216 39.794 34.2582C39.9384 34.6673 39.9528 34.7876 39.9528 35.4517C39.9528 36.1038 39.9336 36.2409 39.7988 36.6067C39.6139 37.149 39.304 37.6403 38.8941 38.0408C38.1097 38.8348 37.1015 39.2727 35.6457 39.4556C35.393 39.4869 34.6567 39.5398 34.0095 39.5735C32.3757 39.6577 31.3001 39.8334 30.3352 40.1703C30.2477 40.2087 30.1539 40.2307 30.0585 40.2352C30.02 40.1967 30.6793 39.8069 31.2207 39.5471C31.9858 39.1789 32.7486 38.9792 34.457 38.6977C35.2992 38.5581 36.1727 38.3873 36.394 38.3199C38.4826 37.6846 39.5582 36.0412 39.2141 34.0055Z"></path><path d="M41.1824 37.4801C40.6121 36.2626 40.4798 35.0859 40.7926 33.9887C40.8263 33.8684 40.8792 33.7745 40.9129 33.7745C40.9442 33.7745 41.0813 33.8467 41.2113 33.9358C41.476 34.1114 42.0005 34.4074 43.4057 35.1677C45.1575 36.1182 46.1584 36.8521 46.837 37.6943C47.4313 38.4282 47.7995 39.2679 47.9775 40.2882C48.0786 40.8657 48.0184 42.2613 47.8693 42.8436C47.3976 44.6819 46.3052 46.1256 44.7412 46.9678C44.5126 47.0905 44.3081 47.1916 44.284 47.1916C44.2623 47.1916 44.3466 46.9823 44.4693 46.7248C44.9962 45.6324 45.0564 44.5712 44.6594 43.3898C44.4139 42.6655 43.9183 41.7824 42.9173 40.2882C41.7527 38.5557 41.4687 38.0913 41.1824 37.4801ZM25.056 44.0563C26.6513 42.7184 28.6316 41.7704 30.4387 41.4768C31.3694 41.3575 32.3135 41.3941 33.2323 41.5851C34.3872 41.8787 35.4219 42.538 35.9585 43.32C36.4831 44.0876 36.7092 44.7541 36.9451 46.2411C37.0365 46.8258 37.1375 47.4154 37.1664 47.5477C37.3421 48.3177 37.6862 48.9337 38.1097 49.2417C38.7834 49.7326 39.948 49.7638 41.091 49.3211C41.2097 49.2664 41.3351 49.2275 41.4639 49.2056C41.5048 49.2465 40.9297 49.6291 40.5255 49.8312C40.0459 50.0862 39.5094 50.2154 38.9663 50.2066C37.9196 50.2066 37.0509 49.6772 36.3242 48.5992C36.0577 48.1428 35.8199 47.6703 35.612 47.1844C34.8468 45.4495 34.4691 44.9225 33.5812 44.3426C32.8064 43.8373 31.8078 43.7483 31.057 44.114C30.0705 44.5953 29.7962 45.8465 30.5036 46.6406C30.8341 46.9818 31.2664 47.2064 31.7356 47.2806C31.9219 47.3062 32.1116 47.2913 32.2917 47.2371C32.4718 47.1829 32.6381 47.0906 32.7794 46.9664C32.9207 46.8423 33.0336 46.6892 33.1105 46.5175C33.1874 46.3459 33.2264 46.1597 33.225 45.9716C33.225 45.4495 33.0229 45.1535 32.5152 44.9225C31.8198 44.6121 31.0763 44.9755 31.0787 45.6227C31.0787 45.8995 31.2014 46.0727 31.4805 46.2002C31.6586 46.2796 31.6634 46.2845 31.5166 46.2556C30.8814 46.1232 30.7322 45.3605 31.2423 44.8552C31.8583 44.2488 33.1288 44.5159 33.5643 45.346C33.7472 45.6949 33.7689 46.3879 33.61 46.8066C33.2491 47.745 32.2096 48.2383 31.1509 47.9688C30.429 47.7859 30.1379 47.5886 29.2692 46.7007C27.7605 45.1559 27.1758 44.8552 25.0006 44.5183L24.5819 44.4533L25.056 44.0563Z"></path><path fill-rule="evenodd" clip-rule="evenodd" d="M17.9769 16.4089C23.0155 22.487 26.4877 24.9943 26.8726 25.5236C27.1903 25.9616 27.07 26.3562 26.5261 26.6642C26.1394 26.8585 25.7185 26.9754 25.2869 27.0083C24.9332 27.0083 24.8105 26.8735 24.8105 26.8735C24.606 26.681 24.4905 26.7147 23.439 24.8595C22.545 23.4682 21.6402 22.0837 20.7248 20.7064C20.6478 20.6342 20.6502 20.6342 23.2922 25.3336C23.7181 26.3129 23.3764 26.6714 23.3764 26.811C23.3764 27.0949 23.297 27.2441 22.9457 27.6363C22.3586 28.286 22.0963 29.0175 21.9062 30.531C21.6945 32.2274 21.0977 33.4256 19.4423 35.4781C18.475 36.6788 18.3161 36.8978 18.0707 37.3839C17.7627 37.9926 17.6785 38.3343 17.6448 39.1019C17.6087 39.9176 17.6785 40.4422 17.9287 41.2194C18.1453 41.9027 18.3763 42.3503 18.961 43.2502C19.4663 44.0274 19.7551 44.6049 19.7551 44.8311C19.7551 45.0092 19.7888 45.0092 20.5732 44.8335C22.4404 44.4148 23.9587 43.6785 24.8129 42.7714C25.3423 42.2107 25.465 41.9027 25.4698 41.1352C25.4722 40.6347 25.4554 40.5288 25.3182 40.24C25.0969 39.7708 24.6926 39.3786 23.8023 38.7723C22.6329 37.9782 22.1324 37.3406 21.9977 36.4623C21.8822 35.7404 22.0145 35.2327 22.6594 33.8876C23.3283 32.492 23.4943 31.8977 23.6074 30.4949C23.6796 29.5877 23.7783 29.2292 24.0405 28.9405C24.3148 28.6421 24.5603 28.541 25.2388 28.4496C26.3433 28.298 27.0435 28.0165 27.621 27.4871C27.8525 27.2961 28.0392 27.0566 28.1681 26.7855C28.297 26.5144 28.3648 26.2184 28.3669 25.9183L28.391 25.413L28.1094 25.0905C27.0964 23.9163 17.2983 15.4849 17.2358 15.4849C17.2237 15.4849 17.5558 15.9012 17.9769 16.4089ZM20.3253 40.0259C20.4357 39.8309 20.4686 39.6015 20.4173 39.3834C20.366 39.1653 20.2343 38.9746 20.0486 38.8493C19.6877 38.6086 19.1222 38.7241 19.1222 39.0345C19.1222 39.1308 19.1752 39.2006 19.2955 39.2607C19.4976 39.3642 19.512 39.4797 19.3532 39.7179C19.192 39.9561 19.2064 40.1655 19.3893 40.3098C19.6853 40.5384 20.104 40.4133 20.3253 40.0259ZM29.0864 28.7167C28.569 28.8731 28.0661 29.4193 27.9073 29.992C27.8135 30.3409 27.8688 30.9545 28.0108 31.1422C28.2418 31.4477 28.4632 31.5271 29.0671 31.5247C30.2462 31.5175 31.2712 31.0146 31.3915 30.3842C31.4878 29.8693 31.0378 29.157 30.417 28.8418C29.9953 28.6706 29.5326 28.6271 29.0864 28.7167ZM30.4675 29.7875C30.648 29.53 30.5686 29.2533 30.2582 29.0656C29.6711 28.7071 28.7784 29.003 28.7784 29.5565C28.7784 29.8332 29.2428 30.1339 29.6687 30.1339C29.9526 30.1339 30.3424 29.9655 30.4675 29.7875Z"></path></mask><path d="M27.2264 18.0139C26.774 17.9441 26.7547 17.9369 26.9689 17.9056C27.3779 17.843 28.3404 17.9272 29.0045 18.0836C30.5541 18.4494 31.9642 19.3878 33.4705 21.0553L33.8699 21.4981L34.4426 21.4066C36.8536 21.0216 39.3031 21.3272 41.3556 22.268C41.9211 22.5279 42.8114 23.0428 42.9197 23.1752C42.9582 23.2185 43.0231 23.488 43.0641 23.7791C43.2181 24.7849 43.1435 25.5525 42.8331 26.1276C42.6646 26.4404 42.655 26.5391 42.7681 26.8086C42.8222 26.9196 42.9063 27.0131 43.011 27.0786C43.1156 27.1442 43.2366 27.179 43.36 27.1791C43.8701 27.1791 44.4188 26.361 44.6714 25.2205L44.7725 24.7657L44.9722 24.9919C46.0718 26.2287 46.9332 27.913 47.08 29.1113L47.1185 29.4241L46.9357 29.1402C46.6698 28.7053 46.3127 28.3334 45.8889 28.0502C45.1526 27.5665 44.373 27.4005 42.3133 27.2922C40.4509 27.196 39.397 27.0372 38.3527 26.6979C36.5745 26.1204 35.6794 25.3552 33.5667 22.6025C32.6283 21.3777 32.0508 20.7016 31.4733 20.1578C30.1619 18.9186 28.8746 18.2689 27.2264 18.0163V18.0139Z" fill="white"></path><path d="M43.3432 20.7449C43.3889 19.9268 43.4996 19.3854 43.7258 18.8921C43.7753 18.7675 43.8374 18.6481 43.911 18.536C43.9231 18.536 43.8846 18.6804 43.8244 18.856C43.6608 19.3373 43.6319 19.9918 43.7474 20.7545C43.8918 21.7218 43.9712 21.8614 44.9986 22.9057C45.4823 23.3966 46.0429 24.0125 46.2475 24.2796L46.618 24.7609L46.2475 24.4168C45.7951 23.9957 44.7556 23.1728 44.5246 23.0549C44.3706 22.9779 44.3466 22.9779 44.2527 23.0717C44.1637 23.1583 44.1469 23.2883 44.1324 23.9043C44.1156 24.8643 43.9832 25.4803 43.6656 26.0939C43.4948 26.4308 43.4683 26.3586 43.6223 25.9808C43.7378 25.7017 43.7498 25.5766 43.7498 24.6478C43.7498 22.783 43.5236 22.333 42.2171 21.5678C41.823 21.3402 41.4183 21.1314 41.0043 20.9422C40.8004 20.8602 40.6026 20.7637 40.4124 20.6535C40.4485 20.6174 41.7238 20.9879 42.2363 21.1828C43.0015 21.4764 43.1266 21.5125 43.2205 21.4788C43.2806 21.4547 43.3119 21.2743 43.3408 20.7449H43.3432ZM28.1046 23.938C27.1879 22.6819 26.6176 20.7545 26.7427 19.3132L26.7788 18.8681L26.9881 18.9042C27.3828 18.9763 28.0589 19.2266 28.3765 19.4191C29.2452 19.9436 29.6229 20.6342 30.0055 22.41C30.1186 22.9297 30.2654 23.5169 30.3328 23.719C30.4411 24.039 30.8549 24.7873 31.1894 25.2734C31.43 25.6247 31.2712 25.7907 30.737 25.7426C29.9213 25.6704 28.8169 24.9125 28.1046 23.938ZM42.2267 33.2909C37.934 31.5753 36.4229 30.0834 36.4229 27.5689C36.4229 27.1984 36.4349 26.8952 36.4518 26.8952C36.4662 26.8952 36.6322 27.0155 36.8199 27.1671C37.691 27.8601 38.6655 28.156 41.3653 28.5483C42.9534 28.7793 43.8437 28.9645 44.669 29.2364C47.2918 30.1003 48.9112 31.852 49.2986 34.2414C49.4092 34.9343 49.3467 36.2337 49.1614 36.9195C49.017 37.4609 48.5791 38.4354 48.4636 38.4739C48.4299 38.4859 48.3986 38.3632 48.3914 38.1948C48.3481 37.2997 47.8909 36.4262 47.1257 35.7717C46.2547 35.0282 45.0853 34.4339 42.2267 33.2909ZM39.2141 34.0055C39.1637 33.7008 39.0946 33.3995 39.0072 33.1032L38.8965 32.7784L39.101 33.007C39.3825 33.3198 39.6063 33.7216 39.794 34.2582C39.9384 34.6673 39.9528 34.7876 39.9528 35.4517C39.9528 36.1038 39.9336 36.2409 39.7988 36.6067C39.6139 37.149 39.304 37.6403 38.8941 38.0408C38.1097 38.8348 37.1015 39.2727 35.6457 39.4556C35.393 39.4869 34.6567 39.5398 34.0095 39.5735C32.3757 39.6577 31.3001 39.8334 30.3352 40.1703C30.2477 40.2087 30.1539 40.2307 30.0585 40.2352C30.02 40.1967 30.6793 39.8069 31.2207 39.5471C31.9858 39.1789 32.7486 38.9792 34.457 38.6977C35.2992 38.5581 36.1727 38.3873 36.394 38.3199C38.4826 37.6846 39.5582 36.0412 39.2141 34.0055Z" fill="white"></path><path d="M41.1824 37.4801C40.6121 36.2626 40.4798 35.0859 40.7926 33.9887C40.8263 33.8684 40.8792 33.7745 40.9129 33.7745C40.9442 33.7745 41.0813 33.8467 41.2113 33.9358C41.476 34.1114 42.0005 34.4074 43.4057 35.1677C45.1575 36.1182 46.1584 36.8521 46.837 37.6943C47.4313 38.4282 47.7995 39.2679 47.9775 40.2882C48.0786 40.8657 48.0184 42.2613 47.8693 42.8436C47.3976 44.6819 46.3052 46.1256 44.7412 46.9678C44.5126 47.0905 44.3081 47.1916 44.284 47.1916C44.2623 47.1916 44.3466 46.9823 44.4693 46.7248C44.9962 45.6324 45.0564 44.5712 44.6594 43.3898C44.4139 42.6655 43.9183 41.7824 42.9173 40.2882C41.7527 38.5557 41.4687 38.0913 41.1824 37.4801ZM25.056 44.0563C26.6513 42.7184 28.6316 41.7704 30.4387 41.4768C31.3694 41.3575 32.3135 41.3941 33.2323 41.5851C34.3872 41.8787 35.4219 42.538 35.9585 43.32C36.4831 44.0876 36.7092 44.7541 36.9451 46.2411C37.0365 46.8258 37.1375 47.4154 37.1664 47.5477C37.3421 48.3177 37.6862 48.9337 38.1097 49.2417C38.7834 49.7326 39.948 49.7638 41.091 49.3211C41.2097 49.2664 41.3351 49.2275 41.4639 49.2056C41.5048 49.2465 40.9297 49.6291 40.5255 49.8312C40.0459 50.0862 39.5094 50.2154 38.9663 50.2066C37.9196 50.2066 37.0509 49.6772 36.3242 48.5992C36.0577 48.1428 35.8199 47.6703 35.612 47.1844C34.8468 45.4495 34.4691 44.9225 33.5812 44.3426C32.8064 43.8373 31.8078 43.7483 31.057 44.114C30.0705 44.5953 29.7962 45.8465 30.5036 46.6406C30.8341 46.9818 31.2664 47.2064 31.7356 47.2806C31.9219 47.3062 32.1116 47.2913 32.2917 47.2371C32.4718 47.1829 32.6381 47.0906 32.7794 46.9664C32.9207 46.8423 33.0336 46.6892 33.1105 46.5175C33.1874 46.3459 33.2264 46.1597 33.225 45.9716C33.225 45.4495 33.0229 45.1535 32.5152 44.9225C31.8198 44.6121 31.0763 44.9755 31.0787 45.6227C31.0787 45.8995 31.2014 46.0727 31.4805 46.2002C31.6586 46.2796 31.6634 46.2845 31.5166 46.2556C30.8814 46.1232 30.7322 45.3605 31.2423 44.8552C31.8583 44.2488 33.1288 44.5159 33.5643 45.346C33.7472 45.6949 33.7689 46.3879 33.61 46.8066C33.2491 47.745 32.2096 48.2383 31.1509 47.9688C30.429 47.7859 30.1379 47.5886 29.2692 46.7007C27.7605 45.1559 27.1758 44.8552 25.0006 44.5183L24.5819 44.4533L25.056 44.0563Z" fill="white"></path><path fill-rule="evenodd" clip-rule="evenodd" d="M17.9769 16.4089C23.0155 22.487 26.4877 24.9943 26.8726 25.5236C27.1903 25.9616 27.07 26.3562 26.5261 26.6642C26.1394 26.8585 25.7185 26.9754 25.2869 27.0083C24.9332 27.0083 24.8105 26.8735 24.8105 26.8735C24.606 26.681 24.4905 26.7147 23.439 24.8595C22.545 23.4682 21.6402 22.0837 20.7248 20.7064C20.6478 20.6342 20.6502 20.6342 23.2922 25.3336C23.7181 26.3129 23.3764 26.6714 23.3764 26.811C23.3764 27.0949 23.297 27.2441 22.9457 27.6363C22.3586 28.286 22.0963 29.0175 21.9062 30.531C21.6945 32.2274 21.0977 33.4256 19.4423 35.4781C18.475 36.6788 18.3161 36.8978 18.0707 37.3839C17.7627 37.9926 17.6785 38.3343 17.6448 39.1019C17.6087 39.9176 17.6785 40.4422 17.9287 41.2194C18.1453 41.9027 18.3763 42.3503 18.961 43.2502C19.4663 44.0274 19.7551 44.6049 19.7551 44.8311C19.7551 45.0092 19.7888 45.0092 20.5732 44.8335C22.4404 44.4148 23.9587 43.6785 24.8129 42.7714C25.3423 42.2107 25.465 41.9027 25.4698 41.1352C25.4722 40.6347 25.4554 40.5288 25.3182 40.24C25.0969 39.7708 24.6926 39.3786 23.8023 38.7723C22.6329 37.9782 22.1324 37.3406 21.9977 36.4623C21.8822 35.7404 22.0145 35.2327 22.6594 33.8876C23.3283 32.492 23.4943 31.8977 23.6074 30.4949C23.6796 29.5877 23.7783 29.2292 24.0405 28.9405C24.3148 28.6421 24.5603 28.541 25.2388 28.4496C26.3433 28.298 27.0435 28.0165 27.621 27.4871C27.8525 27.2961 28.0392 27.0566 28.1681 26.7855C28.297 26.5144 28.3648 26.2184 28.3669 25.9183L28.391 25.413L28.1094 25.0905C27.0964 23.9163 17.2983 15.4849 17.2358 15.4849C17.2237 15.4849 17.5558 15.9012 17.9769 16.4089ZM20.3253 40.0259C20.4357 39.8309 20.4686 39.6015 20.4173 39.3834C20.366 39.1653 20.2343 38.9746 20.0486 38.8493C19.6877 38.6086 19.1222 38.7241 19.1222 39.0345C19.1222 39.1308 19.1752 39.2006 19.2955 39.2607C19.4976 39.3642 19.512 39.4797 19.3532 39.7179C19.192 39.9561 19.2064 40.1655 19.3893 40.3098C19.6853 40.5384 20.104 40.4133 20.3253 40.0259ZM29.0864 28.7167C28.569 28.8731 28.0661 29.4193 27.9073 29.992C27.8135 30.3409 27.8688 30.9545 28.0108 31.1422C28.2418 31.4477 28.4632 31.5271 29.0671 31.5247C30.2462 31.5175 31.2712 31.0146 31.3915 30.3842C31.4878 29.8693 31.0378 29.157 30.417 28.8418C29.9953 28.6706 29.5326 28.6271 29.0864 28.7167ZM30.4675 29.7875C30.648 29.53 30.5686 29.2533 30.2582 29.0656C29.6711 28.7071 28.7784 29.003 28.7784 29.5565C28.7784 29.8332 29.2428 30.1339 29.6687 30.1339C29.9526 30.1339 30.3424 29.9655 30.4675 29.7875Z" fill="white"></path><path d="M27.2264 18.0139C26.774 17.9441 26.7547 17.9369 26.9689 17.9056C27.3779 17.843 28.3404 17.9272 29.0045 18.0836C30.5541 18.4494 31.9642 19.3878 33.4705 21.0553L33.8699 21.4981L34.4426 21.4066C36.8536 21.0216 39.3031 21.3272 41.3556 22.268C41.9211 22.5279 42.8114 23.0428 42.9197 23.1752C42.9582 23.2185 43.0231 23.488 43.0641 23.7791C43.2181 24.7849 43.1435 25.5525 42.8331 26.1276C42.6646 26.4404 42.655 26.5391 42.7681 26.8086C42.8222 26.9196 42.9063 27.0131 43.011 27.0786C43.1156 27.1442 43.2366 27.179 43.36 27.1791C43.8701 27.1791 44.4188 26.361 44.6714 25.2205L44.7725 24.7657L44.9722 24.9919C46.0718 26.2287 46.9332 27.913 47.08 29.1113L47.1185 29.4241L46.9357 29.1402C46.6698 28.7053 46.3127 28.3334 45.8889 28.0502C45.1526 27.5665 44.373 27.4005 42.3133 27.2922C40.4509 27.196 39.397 27.0372 38.3527 26.6979C36.5745 26.1204 35.6794 25.3552 33.5667 22.6025C32.6283 21.3777 32.0508 20.7016 31.4733 20.1578C30.1619 18.9186 28.8746 18.2689 27.2264 18.0163V18.0139Z" stroke="white" stroke-width="2" mask="url(#path-2-inside-1_7_23)"></path><path d="M43.3432 20.7449C43.3889 19.9268 43.4996 19.3854 43.7258 18.8921C43.7753 18.7675 43.8374 18.6481 43.911 18.536C43.9231 18.536 43.8846 18.6804 43.8244 18.856C43.6608 19.3373 43.6319 19.9918 43.7474 20.7545C43.8918 21.7218 43.9712 21.8614 44.9986 22.9057C45.4823 23.3966 46.0429 24.0125 46.2475 24.2796L46.618 24.7609L46.2475 24.4168C45.7951 23.9957 44.7556 23.1728 44.5246 23.0549C44.3706 22.9779 44.3466 22.9779 44.2527 23.0717C44.1637 23.1583 44.1469 23.2883 44.1324 23.9043C44.1156 24.8643 43.9832 25.4803 43.6656 26.0939C43.4948 26.4308 43.4683 26.3586 43.6223 25.9808C43.7378 25.7017 43.7498 25.5766 43.7498 24.6478C43.7498 22.783 43.5236 22.333 42.2171 21.5678C41.823 21.3402 41.4183 21.1314 41.0043 20.9422C40.8004 20.8602 40.6026 20.7637 40.4124 20.6535C40.4485 20.6174 41.7238 20.9879 42.2363 21.1828C43.0015 21.4764 43.1266 21.5125 43.2205 21.4788C43.2806 21.4547 43.3119 21.2743 43.3408 20.7449H43.3432ZM28.1046 23.938C27.1879 22.6819 26.6176 20.7545 26.7427 19.3132L26.7788 18.8681L26.9881 18.9042C27.3828 18.9763 28.0589 19.2266 28.3765 19.4191C29.2452 19.9436 29.6229 20.6342 30.0055 22.41C30.1186 22.9297 30.2654 23.5169 30.3328 23.719C30.4411 24.039 30.8549 24.7873 31.1894 25.2734C31.43 25.6247 31.2712 25.7907 30.737 25.7426C29.9213 25.6704 28.8169 24.9125 28.1046 23.938ZM42.2267 33.2909C37.934 31.5753 36.4229 30.0834 36.4229 27.5689C36.4229 27.1984 36.4349 26.8952 36.4518 26.8952C36.4662 26.8952 36.6322 27.0155 36.8199 27.1671C37.691 27.8601 38.6655 28.156 41.3653 28.5483C42.9534 28.7793 43.8437 28.9645 44.669 29.2364C47.2918 30.1003 48.9112 31.852 49.2986 34.2414C49.4092 34.9343 49.3467 36.2337 49.1614 36.9195C49.017 37.4609 48.5791 38.4354 48.4636 38.4739C48.4299 38.4859 48.3986 38.3632 48.3914 38.1948C48.3481 37.2997 47.8909 36.4262 47.1257 35.7717C46.2547 35.0282 45.0853 34.4339 42.2267 33.2909ZM39.2141 34.0055C39.1637 33.7008 39.0946 33.3995 39.0072 33.1032L38.8965 32.7784L39.101 33.007C39.3825 33.3198 39.6063 33.7216 39.794 34.2582C39.9384 34.6673 39.9528 34.7876 39.9528 35.4517C39.9528 36.1038 39.9336 36.2409 39.7988 36.6067C39.6139 37.149 39.304 37.6403 38.8941 38.0408C38.1097 38.8348 37.1015 39.2727 35.6457 39.4556C35.393 39.4869 34.6567 39.5398 34.0095 39.5735C32.3757 39.6577 31.3001 39.8334 30.3352 40.1703C30.2477 40.2087 30.1539 40.2307 30.0585 40.2352C30.02 40.1967 30.6793 39.8069 31.2207 39.5471C31.9858 39.1789 32.7486 38.9792 34.457 38.6977C35.2992 38.5581 36.1727 38.3873 36.394 38.3199C38.4826 37.6846 39.5582 36.0412 39.2141 34.0055Z" stroke="white" stroke-width="2" mask="url(#path-2-inside-1_7_23)"></path><path d="M41.1824 37.4801C40.6121 36.2626 40.4798 35.0859 40.7926 33.9887C40.8263 33.8684 40.8792 33.7745 40.9129 33.7745C40.9442 33.7745 41.0813 33.8467 41.2113 33.9358C41.476 34.1114 42.0005 34.4074 43.4057 35.1677C45.1575 36.1182 46.1584 36.8521 46.837 37.6943C47.4313 38.4282 47.7995 39.2679 47.9775 40.2882C48.0786 40.8657 48.0184 42.2613 47.8693 42.8436C47.3976 44.6819 46.3052 46.1256 44.7412 46.9678C44.5126 47.0905 44.3081 47.1916 44.284 47.1916C44.2623 47.1916 44.3466 46.9823 44.4693 46.7248C44.9962 45.6324 45.0564 44.5712 44.6594 43.3898C44.4139 42.6655 43.9183 41.7824 42.9173 40.2882C41.7527 38.5557 41.4687 38.0913 41.1824 37.4801ZM25.056 44.0563C26.6513 42.7184 28.6316 41.7704 30.4387 41.4768C31.3694 41.3575 32.3135 41.3941 33.2323 41.5851C34.3872 41.8787 35.4219 42.538 35.9585 43.32C36.4831 44.0876 36.7092 44.7541 36.9451 46.2411C37.0365 46.8258 37.1375 47.4154 37.1664 47.5477C37.3421 48.3177 37.6862 48.9337 38.1097 49.2417C38.7834 49.7326 39.948 49.7638 41.091 49.3211C41.2097 49.2664 41.3351 49.2275 41.4639 49.2056C41.5048 49.2465 40.9297 49.6291 40.5255 49.8312C40.0459 50.0862 39.5094 50.2154 38.9663 50.2066C37.9196 50.2066 37.0509 49.6772 36.3242 48.5992C36.0577 48.1428 35.8199 47.6703 35.612 47.1844C34.8468 45.4495 34.4691 44.9225 33.5812 44.3426C32.8064 43.8373 31.8078 43.7483 31.057 44.114C30.0705 44.5953 29.7962 45.8465 30.5036 46.6406C30.8341 46.9818 31.2664 47.2064 31.7356 47.2806C31.9219 47.3062 32.1116 47.2913 32.2917 47.2371C32.4718 47.1829 32.6381 47.0906 32.7794 46.9664C32.9207 46.8423 33.0336 46.6892 33.1105 46.5175C33.1874 46.3459 33.2264 46.1597 33.225 45.9716C33.225 45.4495 33.0229 45.1535 32.5152 44.9225C31.8198 44.6121 31.0763 44.9755 31.0787 45.6227C31.0787 45.8995 31.2014 46.0727 31.4805 46.2002C31.6586 46.2796 31.6634 46.2845 31.5166 46.2556C30.8814 46.1232 30.7322 45.3605 31.2423 44.8552C31.8583 44.2488 33.1288 44.5159 33.5643 45.346C33.7472 45.6949 33.7689 46.3879 33.61 46.8066C33.2491 47.745 32.2096 48.2383 31.1509 47.9688C30.429 47.7859 30.1379 47.5886 29.2692 46.7007C27.7605 45.1559 27.1758 44.8552 25.0006 44.5183L24.5819 44.4533L25.056 44.0563Z" stroke="white" stroke-width="2" mask="url(#path-2-inside-1_7_23)"></path><path fill-rule="evenodd" clip-rule="evenodd" d="M17.9769 16.4089C23.0155 22.487 26.4877 24.9943 26.8726 25.5236C27.1903 25.9616 27.07 26.3562 26.5261 26.6642C26.1394 26.8585 25.7185 26.9754 25.2869 27.0083C24.9332 27.0083 24.8105 26.8735 24.8105 26.8735C24.606 26.681 24.4905 26.7147 23.439 24.8595C22.545 23.4682 21.6402 22.0837 20.7248 20.7064C20.6478 20.6342 20.6502 20.6342 23.2922 25.3336C23.7181 26.3129 23.3764 26.6714 23.3764 26.811C23.3764 27.0949 23.297 27.2441 22.9457 27.6363C22.3586 28.286 22.0963 29.0175 21.9062 30.531C21.6945 32.2274 21.0977 33.4256 19.4423 35.4781C18.475 36.6788 18.3161 36.8978 18.0707 37.3839C17.7627 37.9926 17.6785 38.3343 17.6448 39.1019C17.6087 39.9176 17.6785 40.4422 17.9287 41.2194C18.1453 41.9027 18.3763 42.3503 18.961 43.2502C19.4663 44.0274 19.7551 44.6049 19.7551 44.8311C19.7551 45.0092 19.7888 45.0092 20.5732 44.8335C22.4404 44.4148 23.9587 43.6785 24.8129 42.7714C25.3423 42.2107 25.465 41.9027 25.4698 41.1352C25.4722 40.6347 25.4554 40.5288 25.3182 40.24C25.0969 39.7708 24.6926 39.3786 23.8023 38.7723C22.6329 37.9782 22.1324 37.3406 21.9977 36.4623C21.8822 35.7404 22.0145 35.2327 22.6594 33.8876C23.3283 32.492 23.4943 31.8977 23.6074 30.4949C23.6796 29.5877 23.7783 29.2292 24.0405 28.9405C24.3148 28.6421 24.5603 28.541 25.2388 28.4496C26.3433 28.298 27.0435 28.0165 27.621 27.4871C27.8525 27.2961 28.0392 27.0566 28.1681 26.7855C28.297 26.5144 28.3648 26.2184 28.3669 25.9183L28.391 25.413L28.1094 25.0905C27.0964 23.9163 17.2983 15.4849 17.2358 15.4849C17.2237 15.4849 17.5558 15.9012 17.9769 16.4089ZM20.3253 40.0259C20.4357 39.8309 20.4686 39.6015 20.4173 39.3834C20.366 39.1653 20.2343 38.9746 20.0486 38.8493C19.6877 38.6086 19.1222 38.7241 19.1222 39.0345C19.1222 39.1308 19.1752 39.2006 19.2955 39.2607C19.4976 39.3642 19.512 39.4797 19.3532 39.7179C19.192 39.9561 19.2064 40.1655 19.3893 40.3098C19.6853 40.5384 20.104 40.4133 20.3253 40.0259ZM29.0864 28.7167C28.569 28.8731 28.0661 29.4193 27.9073 29.992C27.8135 30.3409 27.8688 30.9545 28.0108 31.1422C28.2418 31.4477 28.4632 31.5271 29.0671 31.5247C30.2462 31.5175 31.2712 31.0146 31.3915 30.3842C31.4878 29.8693 31.0378 29.157 30.417 28.8418C29.9953 28.6706 29.5326 28.6271 29.0864 28.7167ZM30.4675 29.7875C30.648 29.53 30.5686 29.2533 30.2582 29.0656C29.6711 28.7071 28.7784 29.003 28.7784 29.5565C28.7784 29.8332 29.2428 30.1339 29.6687 30.1339C29.9526 30.1339 30.3424 29.9655 30.4675 29.7875Z" stroke="white" stroke-width="2" mask="url(#path-2-inside-1_7_23)"></path></svg> 