<?xml version="1.0" encoding="UTF-8"?> <svg xmlns="http://www.w3.org/2000/svg" width="66" height="66" viewBox="0 0 66 66" fill="none"><rect x="0.588806" y="0.41452" width="64.8629" height="64.8629" fill="black"></rect><path d="M45.7208 18.0326C45.3178 18.0622 44.9222 18.1578 44.5494 18.3156H44.5444C44.1866 18.459 42.4853 19.1824 39.899 20.279L30.6307 24.2247C23.9801 27.0549 17.4426 29.8419 17.4426 29.8419L17.5205 29.8115C17.5205 29.8115 17.0697 29.9612 16.5989 30.2874C16.308 30.4745 16.0577 30.7193 15.8632 31.007C15.6322 31.3496 15.4463 31.8738 15.5154 32.4157C15.6284 33.332 16.216 33.8816 16.6378 34.1849C17.0647 34.492 17.4715 34.6354 17.4715 34.6354H17.4815L23.6123 36.7232C23.8872 37.6154 25.4805 42.9102 25.8634 44.1299C26.0894 44.8584 26.3091 45.314 26.5841 45.6617C26.7172 45.8394 26.8729 45.9879 27.06 46.1072C27.1572 46.1644 27.2609 46.2095 27.3688 46.2417L27.306 46.2265C27.3249 46.2316 27.3399 46.2468 27.3537 46.2519C27.404 46.2658 27.4379 46.2709 27.5019 46.2811C28.4724 46.578 29.2521 45.9689 29.2521 45.9689L29.296 45.9333L32.9157 42.6018L38.9824 47.3065L39.1205 47.3662C40.3848 47.9271 41.6655 47.6149 42.3422 47.0641C43.024 46.5095 43.2889 45.8001 43.2889 45.8001L43.3328 45.6858L48.021 21.4085C48.154 20.8095 48.1879 20.2485 48.041 19.704C47.8895 19.153 47.5398 18.6791 47.0605 18.3752C46.658 18.1279 46.1913 18.0085 45.7208 18.0326ZM45.594 20.6343C45.589 20.7143 45.6041 20.7054 45.5689 20.8589V20.8729L40.9247 44.8977C40.9046 44.932 40.8707 45.0069 40.7778 45.0817C40.6799 45.1604 40.6021 45.2099 40.194 45.0462L32.7739 39.2957L28.2916 43.4255L29.2333 37.3463L41.3566 25.9241C41.8563 25.4545 41.6893 25.3555 41.6893 25.3555C41.7245 24.7793 40.9348 25.1867 40.9348 25.1867L25.6475 34.7598L25.6425 34.7344L18.3152 32.2406V32.2355L18.2964 32.2317C18.3092 32.2274 18.3218 32.2223 18.3341 32.2165L18.3742 32.1962L18.4131 32.1822C18.4131 32.1822 24.9557 29.3952 31.6062 26.565C34.9359 25.1474 38.2906 23.7196 40.8707 22.618C42.4009 21.9669 43.9327 21.3196 45.466 20.6762C45.5689 20.6356 45.5199 20.6343 45.594 20.6343Z" fill="white"></path></svg> 